<?xml version="1.0" standalone="no"?>
<!DOCTYPE svg PUBLIC "-//W3C//DTD SVG 20010904//EN"
 "http://www.w3.org/TR/2001/REC-SVG-20010904/DTD/svg10.dtd">
<svg version="1.0" xmlns="http://www.w3.org/2000/svg"
 width="260.000000pt" height="260.000000pt" viewBox="0 0 260.000000 260.000000"
 preserveAspectRatio="xMidYMid meet">
<metadata>
Created by potrace 1.14, written by Peter Selinger 2001-2017
</metadata>
<g transform="translate(0.000000,260.000000) scale(0.100000,-0.100000)"
fill="#000000" stroke="none">
<path d="M261 2568 c-87 -30 -176 -112 -217 -200 l-29 -63 -3 -985 c-2 -960
-2 -987 18 -1050 23 -78 77 -151 144 -197 97 -66 47 -64 1152 -61 l999 3 63
34 c72 39 129 97 169 173 l28 53 2 985 c1 623 -1 979 -7 970 -7 -11 -10 -7
-10 18 0 18 4 31 8 28 5 -3 9 1 9 9 0 8 -6 15 -12 15 -7 0 -17 18 -24 41 -7
22 -20 43 -29 46 -22 8 -122 104 -122 118 0 5 5 3 11 -5 9 -13 10 -13 6 0 -2
8 -12 14 -22 12 -10 -2 -14 1 -10 7 3 6 1 11 -5 11 -6 0 -9 4 -6 9 3 5 0 9 -7
8 -32 -1 -48 4 -42 13 4 7 -2 9 -19 4 -21 -5 -26 -3 -26 12 0 15 -2 16 -9 5
-6 -10 -20 -11 -52 -6 -24 4 -460 9 -969 11 l-925 4 -64 -22z m1126 -581 c93
-7 179 -45 233 -103 54 -59 72 -105 72 -192 0 -132 -69 -234 -202 -296 -30
-14 -61 -26 -67 -26 -7 0 -13 -4 -13 -9 0 -5 35 -17 78 -26 222 -50 332 -192
300 -390 -23 -144 -127 -246 -295 -290 -85 -22 -723 -22 -723 0 0 10 10 15 30
15 44 0 96 24 112 52 10 18 14 131 16 528 2 278 1 538 -3 578 -9 96 -30 123
-103 130 -39 3 -52 9 -52 21 0 14 27 16 272 14 150 -1 305 -4 345 -6z"/>
<path d="M1215 1962 c-59 -5 -76 -13 -95 -45 -19 -30 -20 -51 -20 -301 l0
-269 110 6 c226 12 302 91 304 317 0 90 -3 113 -23 158 -24 54 -65 96 -110
114 -32 13 -126 24 -166 20z"/>
<path d="M1100 1036 l0 -296 29 -32 29 -33 104 2 c192 2 289 66 334 219 23 80
16 212 -16 274 -59 118 -130 151 -337 158 l-143 4 0 -296z"/>
<path d="M2453 2485 c0 -8 4 -12 9 -9 5 3 6 10 3 15 -9 13 -12 11 -12 -6z"/>
<path d="M2475 2460 c-4 -6 -11 -7 -17 -4 -7 4 -8 2 -4 -5 4 -6 11 -9 16 -6 4
3 13 -2 20 -10 7 -8 9 -15 4 -15 -4 0 -3 -5 4 -12 9 -9 15 -9 25 1 10 10 8 11
-7 5 -13 -5 -17 -4 -12 4 3 6 2 13 -4 17 -6 4 -8 10 -5 15 3 5 1 11 -4 14 -5
4 -12 2 -16 -4z"/>
</g>
</svg>
